# xmcd
#
# Track frame offsets: 
#        150
#        20110
#        34292
#        51937
#        67690
#        84377
#        101427
#        116517
#        131642
#        148747
#        169155
#        184745
#
# Disc length: 2695 seconds
#
# Revision: 0
# Processed by: cddbd v1.5.2PL0 Copyright (c) Steve Scherf et al.
# Submitted via: ExactAudioCopy v0.95b4
#
DISCID=a40a850c
DTITLE=Elsa - Everyday ...
DYEAR=1996
DGENRE=Pop
TTITLE0=Everyday
TTITLE1=When I'm Dead And Gone
TTITLE2=Heart On My Sleeve
TTITLE3=The Other Half
TTITLE4=I Will Stick My Tongue Right Out
TTITLE5=Body And Heart
TTITLE6=Fifteen Summers
TTITLE7=Out Of My Way
TTITLE8=Caravan
TTITLE9=Tonight
TTITLE10=Canada Coast
TTITLE11=Josephine
EXTD=
EXTT0=
EXTT1=
EXTT2=
EXTT3=
EXTT4=
EXTT5=
EXTT6=
EXTT7=
EXTT8=
EXTT9=
EXTT10=
EXTT11=
PLAYORDER=
